<?xml version="1.0" encoding="utf-8"?>
<!-- Generator: Adobe Illustrator 24.1.0, SVG Export Plug-In . SVG Version: 6.00 Build 0)  -->
<svg version="1.1" id="Capa_1" xmlns:svgjs="http://svgjs.com/svgjs"
	 xmlns="http://www.w3.org/2000/svg" xmlns:xlink="http://www.w3.org/1999/xlink" x="0px" y="0px" viewBox="0 0 512 512"
	 style="enable-background:new 0 0 512 512;" xml:space="preserve">
<style type="text/css">
	.st0{fill:#0099FF;}
	.st1{fill:#ECECF1;}
	.st2{fill:#E2E2E7;}
</style>
<g>
	<path class="st0" d="M0,0l31.8,448.1L226.2,512l194.4-63.9L452.4,0H0z"/>
	<path class="st0" d="M452.4,0l-31.8,448.1L226.2,512V0H452.4z"/>
	<path class="st1" d="M367.5,136H145.2l5.4,75h211.5l-12.9,181.6l-123,41.1l-123-41.1L99,332h60l1.2,16.5l66,21.9l66-21.9l5.4-77.5
		H94.5L80.7,76h291L367.5,136z"/>
	<g>
		<path class="st2" d="M362.1,211l-12.9,181.6l-123,41.1v-63.3l66-21.9l5.4-77.5h-71.4v-60H362.1z"/>
		<path class="st2" d="M371.7,76l-4.2,60H226.2V76H371.7z"/>
	</g>
</g>
</svg>
