<?xml version="1.0" encoding="utf-8"?>
<!-- Generator: Adobe Illustrator 24.1.0, SVG Export Plug-In . SVG Version: 6.00 Build 0)  -->
<svg version="1.1" id="Capa_1" xmlns="http://www.w3.org/2000/svg" xmlns:xlink="http://www.w3.org/1999/xlink" x="0px" y="0px"
	 viewBox="0 0 456 456" style="enable-background:new 0 0 456 456;" xml:space="preserve">
<style type="text/css">
	.st0{fill:#0099FF;}
	.st1{fill:#FFFFFF;}
</style>
<rect class="st0" width="456" height="456"/>
<path class="st1" d="M81.3,291.3c-3.2,0-6-1.1-8.2-3.2c-2.3-2.2-3.4-4.8-3.4-7.9c0-3.1,1.1-5.7,3.4-7.9c2.3-2.2,5-3.3,8.2-3.3
	c3.3,0,6,1.1,8.3,3.3c2.3,2.2,3.5,4.8,3.5,7.9c0,3-1.2,5.6-3.5,7.9C87.3,290.3,84.6,291.3,81.3,291.3z"/>
<path class="st1" d="M210.2,289.5h-21L134,202.4c-1.4-2.2-2.6-4.5-3.5-6.9H130c0.4,2.5,0.6,8,0.6,16.3v77.7h-18.5V171h22.3l53.4,85
	c2.3,3.5,3.7,6,4.4,7.3h0.3c-0.5-3.1-0.8-8.5-0.8-16V171h18.5V289.5z"/>
<path class="st1" d="M300.4,289.5h-64.9V171h62.3v16.7h-43.1v33.6h39.7v16.6h-39.7v35h45.7V289.5z"/>
<path class="st1" d="M392.7,187.7h-33.2v101.8h-19.2V187.7h-33.1V171h85.5V187.7z"/>
</svg>
