<?xml version="1.0" encoding="utf-8"?>
<!-- Generator: Adobe Illustrator 24.1.0, SVG Export Plug-In . SVG Version: 6.00 Build 0)  -->
<svg version="1.1" id="Capa_1" xmlns="http://www.w3.org/2000/svg" xmlns:xlink="http://www.w3.org/1999/xlink" x="0px" y="0px"
	 viewBox="0 0 144 144" style="enable-background:new 0 0 144 144;" xml:space="preserve">
<style type="text/css">
	.st0{fill:#0099FF;}
	.st1{fill:#FFFFFF;}
</style>
<path class="st0" d="M117,126H27c-5,0-9-4-9-9V27c0-5,4-9,9-9h90c5,0,9,4,9,9v90C126,122,122,126,117,126z"/>
<path class="st1" d="M39,48l15-15h49.5c1.3,0,2,1.6,1.1,2.6L92.1,48H39z M39,96l15,15h49.5c1.3,0,2-1.6,1.1-2.6L92.1,96H39z"/>
<path class="st1" d="M39,48h15v48H39V48z"/>
</svg>
