<?xml version="1.0" encoding="utf-8"?>
<!-- Generator: Adobe Illustrator 24.1.0, SVG Export Plug-In . SVG Version: 6.00 Build 0)  -->
<svg version="1.1"
	 id="svg2" xmlns:cc="http://creativecommons.org/ns#" xmlns:dc="http://purl.org/dc/elements/1.1/" xmlns:rdf="http://www.w3.org/1999/02/22-rdf-syntax-ns#" xmlns:svg="http://www.w3.org/2000/svg"
	 xmlns="http://www.w3.org/2000/svg" xmlns:xlink="http://www.w3.org/1999/xlink" x="0px" y="0px" viewBox="0 0 133.3 133.3"
	 style="enable-background:new 0 0 133.3 133.3;" xml:space="preserve">
<style type="text/css">
	.st0{clip-path:url(#SVGID_2_);}
	.st1{fill:#2A3944;}
	.st2{clip-path:url(#SVGID_4_);}
	.st3{clip-path:url(#SVGID_6_);}
	.st4{clip-path:url(#SVGID_8_);}
	.st5{fill:#0099FF;}
	.st6{fill:#FFFFFF;}
</style>
<g id="g10" transform="matrix(1.3333333,0,0,-1.3333333,0,133.33333)">
	<g id="g12" transform="scale(0.1)">
		<g id="g14">
			<g>
				<defs>
					<path id="SVGID_1_" d="M960,0H40C17.9,0,0,17.9,0,40v920c0,22.1,17.9,40,40,40h920c22.1,0,40-17.9,40-40V40
						C1000,17.9,982.1,0,960,0"/>
				</defs>
				<clipPath id="SVGID_2_">
					<use xlink:href="#SVGID_1_"  style="overflow:visible;"/>
				</clipPath>
				<g id="g16" class="st0">
					<path id="path22" class="st1" d="M1012.8-52.8H-12.8c-22.1,0-40,17.9-40,40v1025.7c0,22.1,17.9,40,40,40h1025.7
						c22.1,0,40-17.9,40-40V-12.8C1052.8-34.9,1034.9-52.8,1012.8-52.8"/>
				</g>
			</g>
		</g>
		<g id="g24">
			<g>
				<defs>
					<path id="SVGID_3_" d="M960,0H40C17.9,0,0,17.9,0,40v920c0,22.1,17.9,40,40,40h920c22.1,0,40-17.9,40-40V40
						C1000,17.9,982.1,0,960,0"/>
				</defs>
				<clipPath id="SVGID_4_">
					<use xlink:href="#SVGID_3_"  style="overflow:visible;"/>
				</clipPath>
				<g id="g26" class="st2">
					<g>
						<defs>
							<path id="SVGID_5_" d="M960,0H40C17.9,0,0,17.9,0,40v920c0,22.1,17.9,40,40,40h920c22.1,0,40-17.9,40-40V40
								C1000,17.9,982.1,0,960,0"/>
						</defs>
						<clipPath id="SVGID_6_">
							<use xlink:href="#SVGID_5_"  style="overflow:visible;"/>
						</clipPath>
						<g id="g32" class="st3">
							<g id="g38" transform="matrix(1020.2,0,0,1020.2,-10.1,-10.1)">
								
									<image style="overflow:visible;enable-background:new    ;" width="102" height="102" id="image40" xlink:href="C79D701D.png"  transform="matrix(9.803924e-03 0 0 -9.803924e-03 0 1)">
								</image>
							</g>
						</g>
					</g>
				</g>
			</g>
		</g>
		<g id="g42">
			<g>
				<defs>
					<path id="SVGID_7_" d="M960,0H40C17.9,0,0,17.9,0,40v920c0,22.1,17.9,40,40,40h920c22.1,0,40-17.9,40-40V40
						C1000,17.9,982.1,0,960,0"/>
				</defs>
				<clipPath id="SVGID_8_">
					<use xlink:href="#SVGID_7_"  style="overflow:visible;"/>
				</clipPath>
				<g id="g44" class="st4">
					<path id="path50" class="st1" d="M500-113.7L-113.7,500l83.5,533.2l1066.6,7.1V-36.3L500-113.7"/>
					<path id="path52" class="st5" d="M773.2,501.1L430.7,158.5L259.4,329.8L602,672.4L773.2,501.1"/>
					<path id="path54" class="st6" d="M257.8,687.4l128.2-128.2c18.3-18.3,18.3-48,0-66.3l194.5,194.4L419.1,848.7L257.8,687.4"/>
				</g>
			</g>
		</g>
	</g>
</g>
</svg>
