<?xml version="1.0" encoding="utf-8"?>
<!-- Generator: Adobe Illustrator 24.1.0, SVG Export Plug-In . SVG Version: 6.00 Build 0)  -->
<svg version="1.1" id="Capa_1" xmlns="http://www.w3.org/2000/svg" xmlns:xlink="http://www.w3.org/1999/xlink" x="0px" y="0px"
	 viewBox="0 0 360 360" style="enable-background:new 0 0 360 360;" xml:space="preserve">
<style type="text/css">
	.st0{fill:#0099FF;}
</style>
<g transform="translate(0.000000,360.000000) scale(0.100000,-0.100000)">
	<path class="st0" d="M2235,3575c-23-22-25-31-25-127c0-74,7-131,23-200c16-66,20-95,12-91c-21,7-70,84-107,164
		c-54,118-83,137-152,104c-39-19-66-62-66-105c0-83,103-310,189-416l50-62l-37-7c-105-19-184-78-184-138c0-80,37-105,133-87
		c89,17,136,9,206-33c32-19,78-40,103-47s51-17,59-23c52-43,80-253,46-343c-19-51-77-100-129-109c-58-11-81,7-162,132
		c-172,266-376,515-600,733c-127,124-340,298-351,287c-2-3,0-31,6-64c36-191,11-1010-39-1273c-24-129-85-261-178-387
		c-96-130-107-154-107-253c0-63,6-104,25-160c18-55,24-97,24-160c1-100-13-133-105-248c-88-110-90-174-6-212c52-24,75-25,98-4
		c18,16,18,10,16-137c-2-163,3-186,47-221c33-27,121-24,182,7c27,14,117,78,199,144c242,193,326,236,465,236c74,0,93-4,144-29
		c78-38,152-115,258-268c48-69,102-138,120-153c30-25,37-27,100-23c76,6,120,29,157,84c69,101,97,360,70,654c-25,286-85,525-218,872
		c-36,94-41,116-41,190c0,102,15,161,66,257l39,75l5,195c7,230,11,244,95,316c104,88,120,162,80,365c-30,153-26,210,20,315
		c14,31,28,76,31,99c12,84-61,123-146,77c-57-30-90-93-130-249c-9-35-14-41-25-32c-19,15-41,86-61,190c-20,110-45,167-79,180
		C2308,3608,2261,3602,2235,3575z M1701,2231c51-54,49-168-4-224c-65-70-172-76-246-14c-22,18-26,28-21,52c17,78,94,160,184,194
		c28,11,53,20,55,20C1671,2260,1685,2247,1701,2231z M2186,2035c180-317,337-722,399-1029c37-187,48-313,41-481
		c-15-338-42-425-131-425c-50,0-71,20-175,170c-90,131-188,227-275,270c-61,29-82,35-161,38c-186,9-287-43-568-291
		c-96-84-150-117-191-117c-97,0-68,337,97,1155c44,220,83,413,85,428c3,16,20,39,39,54l34,25l46-51c111-124,285-151,451-70
		c125,60,211,184,221,317c2,37,0,84-6,105C2071,2209,2110,2168,2186,2035z M1089,1199l-33-182l-24,54c-35,79-39,142-12,211
		c25,67,75,127,92,110C1120,1384,1113,1331,1089,1199z"/>
</g>
</svg>
