<?xml version="1.0" encoding="utf-8"?>
<!-- Generator: Adobe Illustrator 24.1.0, SVG Export Plug-In . SVG Version: 6.00 Build 0)  -->
<svg version="1.1" id="Capa_1" xmlns="http://www.w3.org/2000/svg" xmlns:xlink="http://www.w3.org/1999/xlink" x="0px" y="0px"
	 viewBox="0 0 1282 680" style="enable-background:new 0 0 1282 680;" xml:space="preserve">
<style type="text/css">
	.st0{fill:#0099FF;}
	.st1{fill:#0077FF;}
	.st2{fill-rule:evenodd;clip-rule:evenodd;fill:#FFFFFF;}
	.st3{fill:none;stroke:#FFFFFF;stroke-width:0.5;}
</style>
<desc>Created with Sketch.</desc>
<g id="Page-1">
	<g id="ux-ui-logo" transform="translate(0.000000, -679.000000)">
	</g>
	<g id="ux-ui-logo_1_">
		<g id="Logo" transform="translate(242.000000, 116.000000)">
			<circle id="Oval" class="st0" cx="223.6" cy="223.6" r="222.9"/>
			<circle id="Oval_1_" class="st1" cx="574.3" cy="223.6" r="222.9"/>
			<path id="UX" class="st2" d="M220.6,252.5c0,7.9-0.8,15.3-2.4,22.2s-4.3,12.9-7.9,18.1s-8.5,9.3-14.4,12.3s-13.2,4.5-21.9,4.5
				s-15.9-1.5-21.7-4.5s-10.5-7.1-14.2-12.3s-6.3-11.3-7.8-18.1s-2.3-14.3-2.3-22.2V150.2h19.8v100.3c0,5.3,0.4,10.4,1.2,15.3
				s2.2,9.3,4.2,13.1c2,3.8,4.7,6.9,8.1,9.1c3.4,2.3,7.8,3.4,13.1,3.4s9.6-1.1,13-3.4s6-5.3,8-9.1s3.4-8.2,4.2-13.1s1.2-10,1.2-15.3
				V150.2h19.8V252.5z M283.5,208.3l25.5-58.1h20.5L294,223.9l39.6,82.1h-21.6l-29.3-65.6L253.6,306h-20.9l39.4-82.3l-35.4-73.5
				h20.9L283.5,208.3z"/>
			<path id="UI" class="st2" d="M595.1,252.5c0,7.9-0.8,15.3-2.4,22.2c-1.6,6.9-4.3,12.9-7.9,18.1s-8.5,9.3-14.4,12.3
				c-5.9,3-13.2,4.5-21.9,4.5s-15.9-1.5-21.7-4.5c-5.8-3-10.5-7.1-14.2-12.3s-6.3-11.3-7.8-18.1s-2.3-14.3-2.3-22.2V150.2h19.8
				v100.3c0,5.3,0.4,10.4,1.2,15.3c0.8,4.9,2.2,9.3,4.2,13.1c2,3.8,4.7,6.9,8.1,9.1c3.4,2.3,7.8,3.4,13.1,3.4s9.6-1.1,13-3.4
				s6-5.3,8-9.1c2-3.8,3.4-8.2,4.2-13.1c0.8-4.9,1.2-10,1.2-15.3V150.2h19.8V252.5z M623.3,306V150.2h19.8V306H623.3z"/>
		</g>
		<rect id="Rectangle-path" x="1" y="1" class="st3" width="1280" height="678"/>
	</g>
</g>
</svg>
